#!OML:ASF F:\VICON\USERDATA\INSTALL\rory3\rory3.ASF
:FULLY-SPECIFIED
:DEGREES
45
root 0.054215950251855494 18.14162174027441 10.862274785697334 -2.786179240615456 -2.3527158873310525 -5.665102824840865
lfemur -23.827815984044896 3.8584380254048427 -12.53255073446169
ltibia 53.199606262365776
lfoot -1.2984622021561067 -2.4579690203788402
ltoes -3.70440035279514
rfemur -6.515925914392398 5.552937078205693 31.869050345075156
rtibia 30.977448338480247
rfoot -12.931920081183428 -4.073315140109393
rtoes 4.43643230677206
lowerback 9.640936319041295 1.5318458166216473 5.326377992978461
upperback 0.4356739532429729 1.9670291370698738 2.2902548752836243
thorax -4.910463729517716 1.0522403592114897 -0.8187953609989694
lowerneck -16.600725847847862 -2.6255327586884616 -2.3782723590252512
upperneck 21.000512415350208 -3.578309108495951 1.0502772159755396
head 9.417284955623373 -1.7955019709866513 0.13692638547294358
lclavicle -1.952311975356819e-15 9.076245054875063e-16
lhumerus -32.868865372500494 -0.45079042415300474 85.12565673076173
lradius 24.626642625720383
lwrist 5.206874598436171
lhand -27.273887989484006 23.257281914890957
lfingers 7.12502
lthumb -0.4308235688569019 54.08553603251971
rclavicle -1.9542094016110338e-15 9.058769953276435e-16
rhumerus -25.186456963829677 -11.245959411038358 -81.56111748390482
rradius 24.823502442119008
rwrist 4.768316585600759
rhand -17.852441190174908 22.62151676382224
rfingers 7.12502
rthumb 8.565979320842704 -6.8444354084065875
46
root 0.06892286943589165 18.09227178506121 11.368573299389245 -2.337067990920712 -3.0064488248033476 -6.263996647825627
lfemur -26.11111003992858 3.65477267583424 -11.957195658484292
ltibia 43.29842399106634
lfoot -1.70108819075433 -0.933182890293025
ltoes -3.8952880122971396
rfemur -4.740341980355342 5.548974523133971 32.60193077052267
rtibia 30.927963799878935
rfoot -12.49556686318994 -4.176700401933935
rtoes 3.5516346597654107
lowerback 9.642820657066057 1.7986291391304365 5.856210480305616
upperback 0.38237732347335024 2.5003436733604887 2.2332597254567603
thorax -4.924248992828203 1.2485272933475873 -1.1865459971491181
lowerneck -16.59070983835702 -2.635954314991824 -2.3881264343307653
upperneck 20.884201730449057 -3.5915757348678827 1.1158916803198617
head 9.393331196313017 -1.8107763582313323 0.13272307343419887
lclavicle -1.9523119751037818e-15 9.076245057205512e-16
lhumerus -34.024874287717374 0.6205414106548705 84.81181385411816
lradius 24.053253601421652
lwrist 4.8386197047873685
lhand -27.256611094445688 23.210515379809436
lfingers 7.12502
lthumb -0.46389713178764574 53.96281588162779
rclavicle -1.9542094017287906e-15 9.058769952191907e-16
rhumerus -24.330598591110434 -10.198280718424295 -81.7210968639337
rradius 25.393000017288305
rwrist 3.6053406907679486
rhand -17.83314611964474 22.728991254703914
rfingers 7.12502
rthumb 8.585175423435 -6.756059103677696
47
root 0.08721991141726132 18.042095801944793 11.732934299932827 -1.7236304144454446 -3.609733980550306 -6.854615519390286
lfemur -27.865225099104418 2.299209993034814 -11.392366562701472
ltibia 30.83237615578577
lfoot -2.776561239377989 -0.3678026777849995
ltoes -3.842714291364599
rfemur -2.0033125150816122 5.763718754052179 33.44398809245111
rtibia 30.47008998768297
rfoot -11.547980532168337 -4.417744238302111
rtoes 2.5360817869750236
lowerback 9.540484238496488 2.0537329110654965 6.39917604286984
upperback 0.3188020041990779 3.007384656510411 2.2062655059332816
thorax -4.91752388520248 1.4019278362595324 -1.5131969877787248
lowerneck -16.674341856502824 -2.6546124769026056 -2.417666709602144
upperneck 20.78002489938923 -3.581134170586382 1.1351594402389467
head 9.403404720054152 -1.8035835005552203 0.15140943485542063
lclavicle -1.9523119752356474e-15 9.076245055991043e-16
lhumerus -35.02216851582203 1.9712409875173282 84.36000775428843
lradius 23.34942446203099
lwrist 4.360024312175887
lhand -27.164099124971862 23.36579148419908
lfingers 7.12502
lthumb -0.4220134035349455 53.99088802474092
rclavicle -1.9542094018382214e-15 9.05876995118406e-16
rhumerus -23.466835012636068 -9.499719792543527 -81.75284459162775
rradius 25.851945789593067
rwrist 2.793946089397914
rhand -17.85673849436711 22.700289764782905
rfingers 7.12502
rthumb 8.532332858103322 -6.859608276248765
48
root 0.11072301392393763 17.986477461594987 11.97669115049888 -1.0446861816243211 -4.224293483096639 -7.375248777190338
lfemur -28.28462592052675 -0.3309218223173169 -10.08638701671655
ltibia 19.609936187193632
lfoot -3.2025528111121715 0.4848097766730872
ltoes -4.072867952447524
rfemur -0.1887324068077163 5.810465963432424 33.787484473447414
rtibia 29.321348836720833
rfoot -10.824891547977156 -4.8675237385115935
rtoes 2.2250534315134365
lowerback 9.34977347231882 2.249942058364491 6.767438813459446
upperback 0.24755970439261832 3.41783247482932 2.194714355683605
thorax -4.899698749165519 1.5211300490029702 -1.7695485182648887
lowerneck -16.689395741503226 -2.6543776687866516 -2.406198377567487
upperneck 20.687169463596458 -3.555286390200599 1.1084335486245849
head 9.395689046509355 -1.792664063162605 0.15559872429584737
lclavicle -1.952311975404526e-15 9.076245054435687e-16
lhumerus -35.83240713303866 3.4171329540764956 83.79074140703872
lradius 22.490725566549713
lwrist 3.8393894837839695
lhand -27.20234565699149 23.225373291345225
lfingers 7.12502
lthumb -0.4330808850690252 53.89814204851276
rclavicle -1.9542094018699052e-15 9.058769950892257e-16
rhumerus -22.8629810250794 -9.300223819131373 -81.7646189234185
rradius 26.164308726227915
rwrist 2.3203567266208576
rhand -17.865295436860283 22.71636947075567
rfingers 7.12502
rthumb 8.484699996088338 -6.952370303391676
49
root 0.13903985579711337 17.917374418565906 12.194155047567888 -0.45724890133212326 -4.866956971636448 -7.771120305840798
lfemur -27.383507311560926 -4.4423087692567576 -8.045689226313819
ltibia 14.811899460620396
lfoot -2.5925512082351183 1.5874852941922726
ltoes -4.221386034741993
rfemur 2.3956039663611683 5.839103284569296 34.109953005660046
rtibia 27.93406837089337
rfoot -10.276532360400857 -5.028425155503672
rtoes 1.8660235931798155
lowerback 9.147703254722414 2.3737142955088015 6.878388196608897
upperback 0.19831744464250126 3.7568476722944477 2.1885800293752156
thorax -4.870226211393614 1.6225844020513205 -1.9076703575296023
lowerneck -16.76765881868014 -2.6470339990747216 -2.368762946322301
upperneck 20.693112816291787 -3.490750218078675 1.1263828217094254
head 9.422989228035872 -1.7618632346372982 0.17830818982212504
lclavicle -1.9523119752554308e-15 9.076245055808838e-16
lhumerus -36.234618574651556 5.060199067073703 83.20886780641938
lradius 21.53717633069347
lwrist 3.285759926168943
lhand -27.206043494767304 23.20302340265857
lfingers 7.12502
lthumb -0.42397982898013176 53.886408193094844
rclavicle -1.9542094018377426e-15 9.05876995118847e-16
rhumerus -22.49745007296284 -9.474017677921257 -81.74212793229016
rradius 26.375517982952868
rwrist 2.0597566497208435
rhand -17.865864313444796 22.760042826453642
rfingers 7.12502
rthumb 8.436688965451992 -7.011039512355031
50
root 0.18214318093986762 17.841560071236383 12.912943248115887 -0.14255312802226872 -5.322795136524541 -7.810787993402327
lfemur -25.69392987644479 -8.269869811886004 -6.528667378203341
ltibia 16.89488939241617
lfoot -2.8027865168041974 1.6137793614034155
ltoes -4.096382740380281
rfemur 4.437169083893643 5.724177871155805 33.76513263492612
rtibia 27.68187591067703
rfoot -9.755628211010157 -4.688223989493788
rtoes 1.279055345253329
lowerback 8.978938483437732 2.4293724747101986 6.722077578103316
upperback 0.15631658770553572 4.020489971731544 2.1828749556739155
thorax -4.848801285204796 1.6945807273648104 -1.9921656022726553
lowerneck -16.76409168123816 -2.6293398660943095 -2.2840048511586915
upperneck 20.7157904376 -3.4390686555747063 1.0970691685822156
head 9.413141118449184 -1.7382522920325845 0.1756366834608981
lclavicle -1.9523119751859712e-15 9.076245056448555e-16
lhumerus -36.64377597956389 6.461136733621775 82.5312990368509
lradius 20.664325636471553
lwrist 2.590719169629096
lhand -27.27718005050022 23.00885926884315
lfingers 7.12502
lthumb -0.4319804798386032 53.81942779928601
rclavicle -1.954209401782456e-15 9.058769951697654e-16
rhumerus -22.482313414297753 -10.013600257739627 -81.74744508182904
rradius 26.54729146063735
rwrist 1.999460776541187
rhand -17.830091988002927 22.857843123400453
rfingers 7.12502
rthumb 8.409389253941379 -7.022171284742053
51
root 0.23519477458569496 17.774226835538478 13.698278714466474 -0.23934189360822478 -5.4989181161411445 -7.541753479222773
lfemur -24.654375319576047 -6.966917947239027 -8.010744043861115
ltibia 22.624107637845782
lfoot -2.6295317987536233 1.5585672010837295
ltoes -4.433198515720775
rfemur 6.457947133908423 5.847301830697042 33.41246134617812
rtibia 29.211397745251055
rfoot -9.003822953569161 -4.16831291094441
rtoes 0.7908922748441167
lowerback 8.920495185970497 2.4545242177070032 6.4052045101126485
upperback 0.13871394075078125 4.176512483398869 2.122575183316383
thorax -4.84204263806747 1.7271553868001972 -1.9776180657430165
lowerneck -16.759328738976976 -2.6320577112032595 -2.2119665495791563
upperneck 20.7659191198308 -3.4043751561313043 1.0921169766752
head 9.402753134835791 -1.7209018343131042 0.1717653555323339
lclavicle -1.9523119754798314e-15 9.076245053742133e-16
lhumerus -37.05970826822911 7.701827549549361 81.79754626579708
lradius 20.05527746591435
lwrist 1.880462291015073
lhand -27.296992264486637 22.97145276167856
lfingers 7.12502
lthumb -0.43966145935673373 53.7631071764486
rclavicle -1.9542094017953216e-15 9.058769951579163e-16
rhumerus -22.827147522288143 -10.858861679980643 -81.69186173205021
rradius 26.66737945901372
rwrist 2.16052397053221
rhand -17.83699422060684 22.81251513080599
rfingers 7.12502
rthumb 8.372190717452616 -7.087797859251783
